HIERARCHY
ROOT Hips
{
	OFFSET 0.000000 0.000000 0.000000
	CHANNELS 6 Xposition Yposition Zposition Zrotation Yrotation Xrotation 
	JOINT LeftUpLeg_virtual
	{
		OFFSET 0.000000 0.000000 0.000000
		CHANNELS 3 Zrotation Yrotation Xrotation
		JOINT LeftUpLeg
		{
			OFFSET 10.205400 -3.823500 0.155100
			CHANNELS 3 Zrotation Yrotation Xrotation
			JOINT LeftLeg
			{
				OFFSET 0.708757 -12.982077 0.567790
				CHANNELS 3 Zrotation Yrotation Xrotation
				JOINT LeftFoot
				{
					OFFSET -0.708756 -10.717838 -2.184338
					CHANNELS 3 Zrotation Yrotation Xrotation
					JOINT LeftToeBase
					{
						OFFSET 0.108149 -7.191104 7.560241
						CHANNELS 3 Zrotation Yrotation Xrotation
						End Site
						{
							OFFSET 0.000000 0.000000 0.000000
						}
					}
				}
			}
		}
	}
	JOINT RightUpLeg_virtual
	{
		OFFSET 0.000000 0.000000 0.000000
		CHANNELS 3 Zrotation Yrotation Xrotation
		JOINT RightUpLeg
		{
			OFFSET -10.205400 -3.823500 0.005500
			CHANNELS 3 Zrotation Yrotation Xrotation
			JOINT RightLeg
			{
				OFFSET -0.708756 -12.982134 0.610632
				CHANNELS 3 Zrotation Yrotation Xrotation
				JOINT RightFoot
				{
					OFFSET 0.708754 -10.717769 -1.945823
					CHANNELS 3 Zrotation Yrotation Xrotation
					JOINT RightToeBase
					{
						OFFSET -0.108140 -7.191069 7.372968
						CHANNELS 3 Zrotation Yrotation Xrotation
						End Site
						{
							OFFSET 0.000000 0.000000 0.000000
						}
					}
				}
			}
		}
	}
	JOINT Spine_virtual
	{
		OFFSET 0.000000 0.000000 0.000000
		CHANNELS 3 Zrotation Yrotation Xrotation
		JOINT Spine
		{
			OFFSET 0.000000 6.876099 0.125700
			CHANNELS 3 Zrotation Yrotation Xrotation
			JOINT Spine1
			{
				OFFSET 0.000000 8.022060 0.146608
				CHANNELS 3 Zrotation Yrotation Xrotation
				JOINT Spine2
				{
					OFFSET 0.000000 9.168068 0.167552
					CHANNELS 3 Zrotation Yrotation Xrotation
					JOINT Neck_virtual
					{
						OFFSET 0.000000 0.000000 0.000000
						CHANNELS 3 Zrotation Yrotation Xrotation
						JOINT Neck
						{
							OFFSET 0.000000 10.314075 0.188496
							CHANNELS 3 Zrotation Yrotation Xrotation
							JOINT Head
							{
								OFFSET 0.000000 7.643700 -2.377400
								CHANNELS 3 Zrotation Yrotation Xrotation
								End Site
								{
									OFFSET 0.000000 0.000000 0.000000
								}
							}
						}
					}
					JOINT LeftShoulder_virtual
					{
						OFFSET 0.000000 0.000000 0.000000
						CHANNELS 3 Zrotation Yrotation Xrotation
						JOINT LeftShoulder
						{
							OFFSET 4.392200 8.824978 0.174984
							CHANNELS 3 Zrotation Yrotation Xrotation
							JOINT LeftArm
							{
								OFFSET 8.771219 -2.981674 -0.026999
								CHANNELS 3 Zrotation Yrotation Xrotation
								JOINT LeftForeArm
								{
									OFFSET 8.512804 0.000000 -0.000000
									CHANNELS 3 Zrotation Yrotation Xrotation
									JOINT LeftHand
									{
										OFFSET 18.484802 0.000000 -0.000000
										CHANNELS 3 Zrotation Yrotation Xrotation
										End Site
										{
											OFFSET 0.000000 0.000000 0.000000
										}
									}
								}
							}
						}
					}
					JOINT RightShoulder_virtual
					{
						OFFSET 0.000000 0.000000 0.000000
						CHANNELS 3 Zrotation Yrotation Xrotation
						JOINT RightShoulder
						{
							OFFSET -4.392200 8.824993 0.141379
							CHANNELS 3 Zrotation Yrotation Xrotation
							JOINT RightArm
							{
								OFFSET -8.771282 -2.981682 -0.094208
								CHANNELS 3 Zrotation Yrotation Xrotation
								JOINT RightForeArm
								{
									OFFSET -8.494598 0.000000 0.000000
									CHANNELS 3 Zrotation Yrotation Xrotation
									JOINT RightHand
									{
										OFFSET -18.483803 0.000000 0.000001
										CHANNELS 3 Zrotation Yrotation Xrotation
										End Site
										{
											OFFSET 0.000000 0.000000 0.000000
										}
									}
								}
							}
						}
					}
				}
			}
		}
	}
}
MOTION
Frames: 7
Frame Time: 0.033333
-3.645315 35.914658 43.618565 -179.971441 4.072149 -179.873360 -2.971348 -6.103585 6.801248 -8.937533 5.744073 -21.669106 16.041568 11.540023 20.933852 -5.352184 -1.041066 9.302450 0.000000 0.000000 0.000000 2.103523 -3.921611 3.852299 -2.717079 4.768380 -18.463991 -6.401830 2.965878 18.009590 8.686649 5.669962 11.256786 0.000000 0.000000 0.000000 0.350786 -1.536143 -5.934161 2.120392 3.237204 -5.419840 -1.790073 -2.215898 8.559310 0.020256 0.028340 -0.032792 -2.383901 -0.054090 11.440954 0.129058 -3.841664 9.031836 0.000000 0.000000 0.000000 -0.722944 0.428478 8.905111 -14.899373 -8.347295 3.956050 -52.099549 19.043102 9.402671 -2.462984 -50.571127 7.574196 0.000000 0.000000 0.000000 -4.550394 1.617855 8.455401 23.611537 0.841957 -2.033644 47.679174 -20.748177 24.376255 -7.788106 36.178071 -5.493355 0.000000 0.000000 0.000000 
-3.263393 35.940132 43.460026 -179.992260 3.410642 -179.837952 -2.798331 -5.986012 7.038055 -8.094781 5.744658 -21.456349 16.158723 11.515537 20.764431 -5.300103 -0.823244 9.810079 0.000000 0.000000 0.000000 2.256398 -3.680803 4.202862 -1.869263 4.471867 -17.928727 -6.096344 3.118135 18.413524 8.835387 5.961037 10.850836 0.000000 0.000000 0.000000 0.363774 -1.374645 -5.999610 1.879794 3.226354 -5.548669 -1.785956 -2.214241 8.591618 -0.004280 0.017214 0.048207 -2.304689 -0.015056 11.446799 0.150948 -3.884841 9.019484 0.000000 0.000000 0.000000 -0.667997 0.401452 8.866161 -14.691518 -8.332384 3.810163 -51.892970 19.041534 8.840433 -2.657412 -51.013044 7.761061 0.000000 0.000000 0.000000 -4.508608 1.597413 8.408756 23.724785 0.819413 -1.973816 47.818161 -20.817664 24.477795 -7.852855 36.516770 -5.638813 0.000000 0.000000 0.000000 
-2.774618 35.981365 43.262466 179.940336 2.283769 -179.840015 -2.621764 -5.577909 7.083570 -7.004938 5.327368 -21.110002 15.374964 10.777281 20.077013 -6.060970 -1.096672 10.281902 0.000000 0.000000 0.000000 2.424082 -3.396333 4.608507 -0.929926 3.582107 -17.360391 -6.342173 2.076425 18.643174 7.937405 5.633721 10.279471 0.000000 0.000000 0.000000 0.287228 -1.253050 -6.105217 1.442806 3.146029 -5.720988 -1.653536 -2.239621 8.658635 0.003801 0.006588 0.048733 -2.161786 -0.007202 11.573846 0.294892 -3.977687 9.151825 0.000000 0.000000 0.000000 -0.494469 0.412519 8.909054 -14.273422 -8.378700 3.769701 -51.615241 19.121460 8.034533 -2.942888 -52.028655 8.054053 0.000000 0.000000 0.000000 -4.336811 1.564029 8.496505 23.947617 0.885501 -2.011225 48.138825 -20.802659 24.517907 -7.799430 36.901859 -5.710468 0.000000 0.000000 0.000000 
-2.259799 36.016071 43.099670 179.903453 0.869994 -179.727317 -2.490659 -5.353458 6.937275 -5.708250 4.833594 -20.676943 14.498898 10.611959 19.198507 -6.779895 -1.256794 10.868757 0.000000 0.000000 0.000000 2.559003 -3.228617 5.002441 0.140161 3.103750 -16.836729 -6.583876 1.441608 18.720626 6.838269 5.318454 9.732569 0.000000 0.000000 0.000000 0.249439 -1.270769 -6.310307 0.897186 3.021360 -5.888156 -1.455545 -2.294080 8.731512 0.008744 -0.021359 0.046356 -1.958570 -0.010234 11.712461 0.549275 -4.100514 9.374982 0.000000 0.000000 0.000000 -0.253667 0.430771 8.969144 -13.911132 -8.404878 3.750553 -51.437311 19.331459 6.981007 -3.353034 -53.303466 8.473640 0.000000 0.000000 0.000000 -4.089443 1.530988 8.613981 24.096221 1.131575 -2.120317 48.524290 -20.569381 24.438668 -7.630118 37.199198 -5.721873 0.000000 0.000000 0.000000 
-1.760767 36.026878 43.011570 179.884343 -0.568602 -179.660490 -2.281347 -5.549093 6.827085 -4.320179 4.227415 -20.158088 13.424168 10.786867 18.200055 -7.347480 -1.438696 11.605443 0.000000 0.000000 0.000000 2.691499 -3.363684 5.254034 1.100727 3.315739 -16.343347 -6.617973 0.877416 18.684223 5.281935 5.073565 9.005501 0.000000 0.000000 0.000000 0.232079 -1.469092 -6.481295 0.399918 3.031421 -5.983154 -1.214016 -2.307997 8.785406 0.025954 -0.037019 0.047176 -1.810553 -0.134024 11.745758 0.897463 -4.270683 9.612784 0.000000 0.000000 0.000000 -0.057986 0.334158 9.049349 -13.679219 -8.519234 3.692368 -51.288833 19.536709 5.900495 -3.887972 -54.368606 8.981864 0.000000 0.000000 0.000000 -3.883732 1.441284 8.633391 24.275860 1.418551 -2.113008 48.847747 -19.893445 24.402709 -7.450574 37.280218 -5.715793 0.000000 0.000000 0.000000 
-1.291416 36.018978 43.025108 -179.988161 -1.508419 -179.677702 -1.954506 -5.708523 6.765862 -2.978203 3.234376 -19.925226 12.441689 10.557527 17.530587 -7.316001 -1.499226 12.348164 0.000000 0.000000 0.000000 3.032263 -3.606371 5.283771 1.770852 3.659247 -16.021909 -6.431676 0.256876 18.732846 3.710876 5.030793 8.330084 0.000000 0.000000 0.000000 0.558856 -1.753501 -6.537815 -0.064369 3.141561 -6.003390 -1.093196 -2.315614 8.882116 0.003478 -0.036459 0.052760 -1.609344 -0.224077 11.787196 1.362824 -4.447736 9.873208 0.000000 0.000000 0.000000 0.154852 0.299208 9.066468 -13.710335 -8.470481 3.637109 -51.222809 19.710505 4.905109 -4.564278 -54.953885 9.633573 0.000000 0.000000 0.000000 -3.691929 1.281600 8.684282 24.386972 2.039344 -2.243452 49.082231 -18.937678 24.421372 -7.193785 37.165156 -5.623834 0.000000 0.000000 0.000000 
-0.865475 35.998825 43.135555 179.989090 -2.109483 -179.758940 -1.810721 -5.920803 6.860686 -1.663895 2.053229 -20.317543 11.589660 10.087478 17.572444 -6.812209 -1.501029 12.973769 0.000000 0.000000 0.000000 3.238028 -3.972763 5.253271 2.467586 3.546071 -15.974030 -6.420739 -0.152415 18.747761 2.803617 5.030331 7.764163 0.000000 0.000000 0.000000 0.798600 -2.140421 -6.440787 -0.357234 3.325260 -6.009220 -1.042615 -2.351632 8.955409 0.003547 -0.050385 0.005538 -1.542266 -0.246768 11.911105 1.958933 -4.635615 10.243736 0.000000 0.000000 0.000000 0.204923 0.306435 9.147623 -13.838146 -8.342105 3.611084 -51.186247 19.738318 4.211373 -4.858467 -54.972579 9.883797 0.000000 0.000000 0.000000 -3.601763 1.372872 8.772550 24.503165 2.709642 -2.238531 49.213258 -17.641252 24.590448 -6.959776 36.856339 -5.543460 0.000000 0.000000 0.000000 
